solid OpenSCAD_Model
  facet normal 0 0 1
    outer loop
      vertex 82.5 3.01776 18
      vertex 90 4.01579 18
      vertex 82.5 4.01579 18
    endloop
  endfacet
  facet normal 0 0 1
    outer loop
      vertex 90 4.01579 18
      vertex 82.5 3.01776 18
      vertex 90 0.00394726 18
    endloop
  endfacet
  facet normal 0 0 1
    outer loop
      vertex 70 0.00394726 18
      vertex 82.5 3.01776 18
      vertex 70 3.01776 18
    endloop
  endfacet
  facet normal 0 0 1
    outer loop
      vertex 82.5 3.01776 18
      vertex 70 0.00394726 18
      vertex 90 0.00394726 18
    endloop
  endfacet
  facet normal 0 0 1
    outer loop
      vertex 90 24.5725 18
      vertex 82.5 20.9822 18
      vertex 90 19.9842 18
    endloop
  endfacet
  facet normal -0 0 1
    outer loop
      vertex 70 24.2654 18
      vertex 82.5 20.9822 18
      vertex 90 24.5725 18
    endloop
  endfacet
  facet normal 0 0 1
    outer loop
      vertex 82.5 20.9822 18
      vertex 70 24.2654 18
      vertex 70 20.9822 18
    endloop
  endfacet
  facet normal 0 0 1
    outer loop
      vertex 90 19.9842 18
      vertex 82.5 20.9822 18
      vertex 82.5 19.9842 18
    endloop
  endfacet
  facet normal -0 0 1
    outer loop
      vertex 89 70 18
      vertex 90 68 18
      vertex 90 70 18
    endloop
  endfacet
  facet normal -0 0 1
    outer loop
      vertex 81 70 18
      vertex 90 68 18
      vertex 89 70 18
    endloop
  endfacet
  facet normal -0 0 1
    outer loop
      vertex 79 70 18
      vertex 90 68 18
      vertex 81 70 18
    endloop
  endfacet
  facet normal 0 0 1
    outer loop
      vertex 70 68 18
      vertex 79 70 18
      vertex 71 70 18
    endloop
  endfacet
  facet normal 0 0 1
    outer loop
      vertex 70 68 18
      vertex 71 70 18
      vertex 70 70 18
    endloop
  endfacet
  facet normal 0 0 1
    outer loop
      vertex 79 70 18
      vertex 70 68 18
      vertex 90 68 18
    endloop
  endfacet
  facet normal 0 0 1
    outer loop
      vertex 70 43.7346 18
      vertex 90 48 18
      vertex 70 48 18
    endloop
  endfacet
  facet normal 0 0 1
    outer loop
      vertex 90 48 18
      vertex 70 43.7346 18
      vertex 90 43.4275 18
    endloop
  endfacet
  facet normal 0 0 -1
    outer loop
      vertex 70 0.00394726 0
      vertex 90 70 0
      vertex 90 0.00394726 0
    endloop
  endfacet
  facet normal -0 0 -1
    outer loop
      vertex 90 70 0
      vertex 70 0.00394726 0
      vertex 70 70 0
    endloop
  endfacet
  facet normal 0 -1 0
    outer loop
      vertex 70 0.00394726 0
      vertex 90 0.00394726 18
      vertex 70 0.00394726 18
    endloop
  endfacet
  facet normal 0 -1 -0
    outer loop
      vertex 90 0.00394726 18
      vertex 70 0.00394726 0
      vertex 90 0.00394726 0
    endloop
  endfacet
  facet normal 0 -0.535816 0.844335
    outer loop
      vertex 70 17.2901 10.7188
      vertex 82.5 16.3358 10.1132
      vertex 82.5 17.2901 10.7188
    endloop
  endfacet
  facet normal 0 -0.535816 0.844335
    outer loop
      vertex 82.5 16.3358 10.1132
      vertex 70 17.2901 10.7188
      vertex 70 16.3358 10.1132
    endloop
  endfacet
  facet normal 0 -0.929759 0.36817
    outer loop
      vertex 70 20.1434 14.168
      vertex 82.5 20.5595 15.2188
      vertex 70 20.5595 15.2188
    endloop
  endfacet
  facet normal 0 -0.929759 0.36817
    outer loop
      vertex 82.5 20.5595 15.2188
      vertex 70 20.1434 14.168
      vertex 82.5 20.1434 14.168
    endloop
  endfacet
  facet normal 0 -0.992121 0.125287
    outer loop
      vertex 70 20.8406 16.3136
      vertex 82.5 20.9822 17.4349
      vertex 70 20.9822 17.4349
    endloop
  endfacet
  facet normal 0 -0.992121 0.125287
    outer loop
      vertex 82.5 20.9822 17.4349
      vertex 70 20.8406 16.3136
      vertex 82.5 20.8406 16.3136
    endloop
  endfacet
  facet normal 0 -0.876298 0.481769
    outer loop
      vertex 70 19.5989 13.1776
      vertex 82.5 20.1434 14.168
      vertex 70 20.1434 14.168
    endloop
  endfacet
  facet normal 0 -0.876298 0.481769
    outer loop
      vertex 82.5 20.1434 14.168
      vertex 70 19.5989 13.1776
      vertex 82.5 19.5989 13.1776
    endloop
  endfacet
  facet normal 0 0.876302 0.481763
    outer loop
      vertex 82.5 4.40105 13.1776
      vertex 70 3.85656 14.168
      vertex 82.5 3.85656 14.168
    endloop
  endfacet
  facet normal 0 0.876302 0.481763
    outer loop
      vertex 70 3.85656 14.168
      vertex 82.5 4.40105 13.1776
      vertex 70 4.40105 13.1776
    endloop
  endfacet
  facet normal 0 -0.728966 0.68455
    outer loop
      vertex 70 18.1609 11.4393
      vertex 82.5 18.9346 12.2632
      vertex 70 18.9346 12.2632
    endloop
  endfacet
  facet normal 0 -0.728966 0.68455
    outer loop
      vertex 82.5 18.9346 12.2632
      vertex 70 18.1609 11.4393
      vertex 82.5 18.1609 11.4393
    endloop
  endfacet
  facet normal 0 -1 0
    outer loop
      vertex 70 20.9822 17.4349
      vertex 82.5 20.9822 18
      vertex 70 20.9822 18
    endloop
  endfacet
  facet normal 0 -1 -0
    outer loop
      vertex 82.5 20.9822 18
      vertex 70 20.9822 17.4349
      vertex 82.5 20.9822 17.4349
    endloop
  endfacet
  facet normal 0 -0.968582 0.248692
    outer loop
      vertex 70 20.5595 15.2188
      vertex 82.5 20.8406 16.3136
      vertex 70 20.8406 16.3136
    endloop
  endfacet
  facet normal 0 -0.968582 0.248692
    outer loop
      vertex 82.5 20.8406 16.3136
      vertex 70 20.5595 15.2188
      vertex 82.5 20.5595 15.2188
    endloop
  endfacet
  facet normal 0 -0.809038 0.587756
    outer loop
      vertex 70 18.9346 12.2632
      vertex 82.5 19.5989 13.1776
      vertex 70 19.5989 13.1776
    endloop
  endfacet
  facet normal 0 -0.809038 0.587756
    outer loop
      vertex 82.5 19.5989 13.1776
      vertex 70 18.9346 12.2632
      vertex 82.5 18.9346 12.2632
    endloop
  endfacet
  facet normal 0 0.992114 0.125339
    outer loop
      vertex 82.5 3.15942 16.3136
      vertex 70 3.01776 17.4349
      vertex 82.5 3.01776 17.4349
    endloop
  endfacet
  facet normal 0 0.992114 0.125339
    outer loop
      vertex 70 3.01776 17.4349
      vertex 82.5 3.15942 16.3136
      vertex 70 3.15942 16.3136
    endloop
  endfacet
  facet normal 0 -0.425679 0.904874
    outer loop
      vertex 70 16.3358 10.1132
      vertex 82.5 16 9.95523
      vertex 82.5 16.3358 10.1132
    endloop
  endfacet
  facet normal 0 -0.425679 0.904874
    outer loop
      vertex 82.5 16 9.95523
      vertex 70 16.3358 10.1132
      vertex 70 16 9.95523
    endloop
  endfacet
  facet normal 0 -0.637483 0.770465
    outer loop
      vertex 70 18.1609 11.4393
      vertex 82.5 17.2901 10.7188
      vertex 82.5 18.1609 11.4393
    endloop
  endfacet
  facet normal 0 -0.637483 0.770465
    outer loop
      vertex 82.5 17.2901 10.7188
      vertex 70 18.1609 11.4393
      vertex 70 17.2901 10.7188
    endloop
  endfacet
  facet normal -1 0 0
    outer loop
      vertex 82.5 20.8406 16.3136
      vertex 82.5 19.8583 16.5009
      vertex 82.5 19.9842 17.4977
    endloop
  endfacet
  facet normal -1 0 0
    outer loop
      vertex 82.5 20.5595 15.2188
      vertex 82.5 19.6085 15.5279
      vertex 82.5 19.8583 16.5009
    endloop
  endfacet
  facet normal -1 0 0
    outer loop
      vertex 82.5 19.2386 14.5938
      vertex 82.5 20.1434 14.168
      vertex 82.5 19.5989 13.1776
    endloop
  endfacet
  facet normal -1 0 0
    outer loop
      vertex 82.5 20.1434 14.168
      vertex 82.5 19.2386 14.5938
      vertex 82.5 19.6085 15.5279
    endloop
  endfacet
  facet normal -1 0 0
    outer loop
      vertex 82.5 18.7546 13.7134
      vertex 82.5 19.5989 13.1776
      vertex 82.5 18.9346 12.2632
    endloop
  endfacet
  facet normal -1 0 0
    outer loop
      vertex 82.5 19.5989 13.1776
      vertex 82.5 18.7546 13.7134
      vertex 82.5 19.2386 14.5938
    endloop
  endfacet
  facet normal -1 0 0
    outer loop
      vertex 82.5 18.9346 12.2632
      vertex 82.5 18.1641 12.9006
      vertex 82.5 18.7546 13.7134
    endloop
  endfacet
  facet normal -1 0 0
    outer loop
      vertex 82.5 18.1609 11.4393
      vertex 82.5 18.1641 12.9006
      vertex 82.5 18.9346 12.2632
    endloop
  endfacet
  facet normal -1 0 0
    outer loop
      vertex 82.5 18.1609 11.4393
      vertex 82.5 17.4764 12.1683
      vertex 82.5 18.1641 12.9006
    endloop
  endfacet
  facet normal -1 0 0
    outer loop
      vertex 82.5 17.2901 10.7188
      vertex 82.5 17.4764 12.1683
      vertex 82.5 18.1609 11.4393
    endloop
  endfacet
  facet normal -1 0 0
    outer loop
      vertex 82.5 17.2901 10.7188
      vertex 82.5 16.7023 11.5279
      vertex 82.5 17.4764 12.1683
    endloop
  endfacet
  facet normal -1 0 0
    outer loop
      vertex 82.5 16 11.0822
      vertex 82.5 17.2901 10.7188
      vertex 82.5 16.3358 10.1132
    endloop
  endfacet
  facet normal -1 0 0
    outer loop
      vertex 82.5 16 11.0822
      vertex 82.5 16.3358 10.1132
      vertex 82.5 16 9.95523
    endloop
  endfacet
  facet normal -1 0 0
    outer loop
      vertex 82.5 17.2901 10.7188
      vertex 82.5 16 11.0822
      vertex 82.5 16.7023 11.5279
    endloop
  endfacet
  facet normal -1 0 0
    outer loop
      vertex 82.5 19.9842 17.4977
      vertex 82.5 20.9822 17.4349
      vertex 82.5 20.8406 16.3136
    endloop
  endfacet
  facet normal -1 0 0
    outer loop
      vertex 82.5 19.8583 16.5009
      vertex 82.5 20.8406 16.3136
      vertex 82.5 20.5595 15.2188
    endloop
  endfacet
  facet normal -1 0 0
    outer loop
      vertex 82.5 19.6085 15.5279
      vertex 82.5 20.5595 15.2188
      vertex 82.5 20.1434 14.168
    endloop
  endfacet
  facet normal -1 0 0
    outer loop
      vertex 82.5 20.9822 17.4349
      vertex 82.5 19.9842 17.4977
      vertex 82.5 20.9822 18
    endloop
  endfacet
  facet normal -1 -0 0
    outer loop
      vertex 82.5 20.9822 18
      vertex 82.5 19.9842 17.4977
      vertex 82.5 19.9842 18
    endloop
  endfacet
  facet normal -1 0 0
    outer loop
      vertex 82.5 7.66422 10.1132
      vertex 82.5 8 11.0822
      vertex 82.5 8 9.95523
    endloop
  endfacet
  facet normal -1 0 0
    outer loop
      vertex 82.5 6.70993 10.7188
      vertex 82.5 8 11.0822
      vertex 82.5 7.66422 10.1132
    endloop
  endfacet
  facet normal -1 -0 0
    outer loop
      vertex 82.5 8 11.0822
      vertex 82.5 6.70993 10.7188
      vertex 82.5 7.29772 11.5279
    endloop
  endfacet
  facet normal -1 0 0
    outer loop
      vertex 82.5 6.70993 10.7188
      vertex 82.5 6.52362 12.1683
      vertex 82.5 7.29772 11.5279
    endloop
  endfacet
  facet normal -1 0 0
    outer loop
      vertex 82.5 5.83908 11.4393
      vertex 82.5 6.52362 12.1683
      vertex 82.5 6.70993 10.7188
    endloop
  endfacet
  facet normal -1 0 0
    outer loop
      vertex 82.5 5.83908 11.4393
      vertex 82.5 5.83589 12.9006
      vertex 82.5 6.52362 12.1683
    endloop
  endfacet
  facet normal -1 0 0
    outer loop
      vertex 82.5 5.06538 12.2632
      vertex 82.5 5.83589 12.9006
      vertex 82.5 5.83908 11.4393
    endloop
  endfacet
  facet normal -1 -0 0
    outer loop
      vertex 82.5 5.83589 12.9006
      vertex 82.5 5.06538 12.2632
      vertex 82.5 5.24538 13.7134
    endloop
  endfacet
  facet normal -1 0 0
    outer loop
      vertex 82.5 4.40105 13.1776
      vertex 82.5 5.24538 13.7134
      vertex 82.5 5.06538 12.2632
    endloop
  endfacet
  facet normal -1 -0 0
    outer loop
      vertex 82.5 5.24538 13.7134
      vertex 82.5 4.40105 13.1776
      vertex 82.5 4.76138 14.5938
    endloop
  endfacet
  facet normal -1 0 0
    outer loop
      vertex 82.5 3.85656 14.168
      vertex 82.5 4.76138 14.5938
      vertex 82.5 4.40105 13.1776
    endloop
  endfacet
  facet normal -1 -0 0
    outer loop
      vertex 82.5 4.76138 14.5938
      vertex 82.5 3.85656 14.168
      vertex 82.5 4.39155 15.5279
    endloop
  endfacet
  facet normal -1 0 0
    outer loop
      vertex 82.5 3.44049 15.2188
      vertex 82.5 4.39155 15.5279
      vertex 82.5 3.85656 14.168
    endloop
  endfacet
  facet normal -1 -0 0
    outer loop
      vertex 82.5 4.39155 15.5279
      vertex 82.5 3.44049 15.2188
      vertex 82.5 4.1417 16.5009
    endloop
  endfacet
  facet normal -1 0 0
    outer loop
      vertex 82.5 3.15942 16.3136
      vertex 82.5 4.1417 16.5009
      vertex 82.5 3.44049 15.2188
    endloop
  endfacet
  facet normal -1 -0 0
    outer loop
      vertex 82.5 4.1417 16.5009
      vertex 82.5 3.15942 16.3136
      vertex 82.5 4.01579 17.4977
    endloop
  endfacet
  facet normal -1 0 0
    outer loop
      vertex 82.5 3.01776 17.4349
      vertex 82.5 4.01579 17.4977
      vertex 82.5 3.15942 16.3136
    endloop
  endfacet
  facet normal -1 0 0
    outer loop
      vertex 82.5 3.01776 18
      vertex 82.5 4.01579 17.4977
      vertex 82.5 3.01776 17.4349
    endloop
  endfacet
  facet normal -1 0 0
    outer loop
      vertex 82.5 4.01579 17.4977
      vertex 82.5 3.01776 18
      vertex 82.5 4.01579 18
    endloop
  endfacet
  facet normal -0 0.4257 0.904865
    outer loop
      vertex 70 8 9.95523
      vertex 82.5 7.66422 10.1132
      vertex 82.5 8 9.95523
    endloop
  endfacet
  facet normal 0 0.4257 0.904865
    outer loop
      vertex 82.5 7.66422 10.1132
      vertex 70 8 9.95523
      vertex 70 7.66422 10.1132
    endloop
  endfacet
  facet normal 0 0.929768 0.368147
    outer loop
      vertex 82.5 3.85656 14.168
      vertex 70 3.44049 15.2188
      vertex 82.5 3.44049 15.2188
    endloop
  endfacet
  facet normal 0 0.929768 0.368147
    outer loop
      vertex 70 3.44049 15.2188
      vertex 82.5 3.85656 14.168
      vertex 70 3.85656 14.168
    endloop
  endfacet
  facet normal 0 0.968589 0.248668
    outer loop
      vertex 82.5 3.44049 15.2188
      vertex 70 3.15942 16.3136
      vertex 82.5 3.15942 16.3136
    endloop
  endfacet
  facet normal 0 0.968589 0.248668
    outer loop
      vertex 70 3.15942 16.3136
      vertex 82.5 3.44049 15.2188
      vertex 70 3.44049 15.2188
    endloop
  endfacet
  facet normal 0 0.728966 0.68455
    outer loop
      vertex 82.5 5.83908 11.4393
      vertex 70 5.06538 12.2632
      vertex 82.5 5.06538 12.2632
    endloop
  endfacet
  facet normal 0 0.728966 0.68455
    outer loop
      vertex 70 5.06538 12.2632
      vertex 82.5 5.83908 11.4393
      vertex 70 5.83908 11.4393
    endloop
  endfacet
  facet normal -0 0.53582 0.844332
    outer loop
      vertex 70 7.66422 10.1132
      vertex 82.5 6.70993 10.7188
      vertex 82.5 7.66422 10.1132
    endloop
  endfacet
  facet normal 0 0.53582 0.844332
    outer loop
      vertex 82.5 6.70993 10.7188
      vertex 70 7.66422 10.1132
      vertex 70 6.70993 10.7188
    endloop
  endfacet
  facet normal 0 1 -0
    outer loop
      vertex 82.5 3.01776 17.4349
      vertex 70 3.01776 18
      vertex 82.5 3.01776 18
    endloop
  endfacet
  facet normal 0 1 0
    outer loop
      vertex 70 3.01776 18
      vertex 82.5 3.01776 17.4349
      vertex 70 3.01776 17.4349
    endloop
  endfacet
  facet normal -0 0.637461 0.770483
    outer loop
      vertex 70 6.70993 10.7188
      vertex 82.5 5.83908 11.4393
      vertex 82.5 6.70993 10.7188
    endloop
  endfacet
  facet normal 0 0.637461 0.770483
    outer loop
      vertex 82.5 5.83908 11.4393
      vertex 70 6.70993 10.7188
      vertex 70 5.83908 11.4393
    endloop
  endfacet
  facet normal 0 0.809026 0.587773
    outer loop
      vertex 82.5 5.06538 12.2632
      vertex 70 4.40105 13.1776
      vertex 82.5 4.40105 13.1776
    endloop
  endfacet
  facet normal 0 0.809026 0.587773
    outer loop
      vertex 70 4.40105 13.1776
      vertex 82.5 5.06538 12.2632
      vertex 70 5.06538 12.2632
    endloop
  endfacet
  facet normal 0 -0.535833 0.844324
    outer loop
      vertex 82.5 16.7023 11.5279
      vertex 90 16 11.0822
      vertex 90 16.7023 11.5279
    endloop
  endfacet
  facet normal 0 -0.535833 0.844324
    outer loop
      vertex 90 16 11.0822
      vertex 82.5 16.7023 11.5279
      vertex 82.5 16 11.0822
    endloop
  endfacet
  facet normal 0 -0.929755 0.368179
    outer loop
      vertex 82.5 19.2386 14.5938
      vertex 90 19.6085 15.5279
      vertex 82.5 19.6085 15.5279
    endloop
  endfacet
  facet normal 0 -0.929755 0.368179
    outer loop
      vertex 90 19.6085 15.5279
      vertex 82.5 19.2386 14.5938
      vertex 90 19.2386 14.5938
    endloop
  endfacet
  facet normal 0 -0.728956 0.68456
    outer loop
      vertex 82.5 17.4764 12.1683
      vertex 90 18.1641 12.9006
      vertex 82.5 18.1641 12.9006
    endloop
  endfacet
  facet normal 0 -0.728956 0.68456
    outer loop
      vertex 90 18.1641 12.9006
      vertex 82.5 17.4764 12.1683
      vertex 90 17.4764 12.1683
    endloop
  endfacet
  facet normal 0 -0.876308 0.481751
    outer loop
      vertex 82.5 18.7546 13.7134
      vertex 90 19.2386 14.5938
      vertex 82.5 19.2386 14.5938
    endloop
  endfacet
  facet normal 0 -0.876308 0.481751
    outer loop
      vertex 90 19.2386 14.5938
      vertex 82.5 18.7546 13.7134
      vertex 90 18.7546 13.7134
    endloop
  endfacet
  facet normal 0 0.876308 0.481751
    outer loop
      vertex 90 5.24538 13.7134
      vertex 82.5 4.76138 14.5938
      vertex 90 4.76138 14.5938
    endloop
  endfacet
  facet normal 0 0.876308 0.481751
    outer loop
      vertex 82.5 4.76138 14.5938
      vertex 90 5.24538 13.7134
      vertex 82.5 5.24538 13.7134
    endloop
  endfacet
  facet normal 0 -0.637429 0.770509
    outer loop
      vertex 82.5 17.4764 12.1683
      vertex 90 16.7023 11.5279
      vertex 90 17.4764 12.1683
    endloop
  endfacet
  facet normal 0 -0.637429 0.770509
    outer loop
      vertex 90 16.7023 11.5279
      vertex 82.5 17.4764 12.1683
      vertex 82.5 16.7023 11.5279
    endloop
  endfacet
  facet normal 0 -1 0
    outer loop
      vertex 82.5 19.9842 17.4977
      vertex 90 19.9842 18
      vertex 82.5 19.9842 18
    endloop
  endfacet
  facet normal 0 -1 -0
    outer loop
      vertex 90 19.9842 18
      vertex 82.5 19.9842 17.4977
      vertex 90 19.9842 17.4977
    endloop
  endfacet
  facet normal 0 -0.968589 0.248668
    outer loop
      vertex 82.5 19.6085 15.5279
      vertex 90 19.8583 16.5009
      vertex 82.5 19.8583 16.5009
    endloop
  endfacet
  facet normal 0 -0.968589 0.248668
    outer loop
      vertex 90 19.8583 16.5009
      vertex 82.5 19.6085 15.5279
      vertex 90 19.6085 15.5279
    endloop
  endfacet
  facet normal 0 -0.809033 0.587763
    outer loop
      vertex 82.5 18.1641 12.9006
      vertex 90 18.7546 13.7134
      vertex 82.5 18.7546 13.7134
    endloop
  endfacet
  facet normal 0 -0.809033 0.587763
    outer loop
      vertex 90 18.7546 13.7134
      vertex 82.5 18.1641 12.9006
      vertex 90 18.1641 12.9006
    endloop
  endfacet
  facet normal -0 0.637429 0.770509
    outer loop
      vertex 82.5 7.29772 11.5279
      vertex 90 6.52362 12.1683
      vertex 90 7.29772 11.5279
    endloop
  endfacet
  facet normal 0 0.637429 0.770509
    outer loop
      vertex 90 6.52362 12.1683
      vertex 82.5 7.29772 11.5279
      vertex 82.5 6.52362 12.1683
    endloop
  endfacet
  facet normal 0 0.992117 0.125318
    outer loop
      vertex 90 4.1417 16.5009
      vertex 82.5 4.01579 17.4977
      vertex 90 4.01579 17.4977
    endloop
  endfacet
  facet normal 0 0.992117 0.125318
    outer loop
      vertex 82.5 4.01579 17.4977
      vertex 90 4.1417 16.5009
      vertex 82.5 4.1417 16.5009
    endloop
  endfacet
  facet normal 0 -0.992118 0.125309
    outer loop
      vertex 82.5 19.8583 16.5009
      vertex 90 19.9842 17.4977
      vertex 82.5 19.9842 17.4977
    endloop
  endfacet
  facet normal 0 -0.992118 0.125309
    outer loop
      vertex 90 19.9842 17.4977
      vertex 82.5 19.8583 16.5009
      vertex 90 19.8583 16.5009
    endloop
  endfacet
  facet normal -0 0.535844 0.844317
    outer loop
      vertex 82.5 8 11.0822
      vertex 90 7.29772 11.5279
      vertex 90 8 11.0822
    endloop
  endfacet
  facet normal 0 0.535844 0.844317
    outer loop
      vertex 90 7.29772 11.5279
      vertex 82.5 8 11.0822
      vertex 82.5 7.29772 11.5279
    endloop
  endfacet
  facet normal 0 0.929779 0.368119
    outer loop
      vertex 90 4.76138 14.5938
      vertex 82.5 4.39155 15.5279
      vertex 90 4.39155 15.5279
    endloop
  endfacet
  facet normal 0 0.929779 0.368119
    outer loop
      vertex 82.5 4.39155 15.5279
      vertex 90 4.76138 14.5938
      vertex 82.5 4.76138 14.5938
    endloop
  endfacet
  facet normal 0 0.968577 0.248714
    outer loop
      vertex 90 4.39155 15.5279
      vertex 82.5 4.1417 16.5009
      vertex 90 4.1417 16.5009
    endloop
  endfacet
  facet normal 0 0.968577 0.248714
    outer loop
      vertex 82.5 4.1417 16.5009
      vertex 90 4.39155 15.5279
      vertex 82.5 4.39155 15.5279
    endloop
  endfacet
  facet normal 0 0.728942 0.684576
    outer loop
      vertex 90 6.52362 12.1683
      vertex 82.5 5.83589 12.9006
      vertex 90 5.83589 12.9006
    endloop
  endfacet
  facet normal 0 0.728942 0.684576
    outer loop
      vertex 82.5 5.83589 12.9006
      vertex 90 6.52362 12.1683
      vertex 82.5 6.52362 12.1683
    endloop
  endfacet
  facet normal 0 1 -0
    outer loop
      vertex 90 4.01579 17.4977
      vertex 82.5 4.01579 18
      vertex 90 4.01579 18
    endloop
  endfacet
  facet normal 0 1 0
    outer loop
      vertex 82.5 4.01579 18
      vertex 90 4.01579 17.4977
      vertex 82.5 4.01579 17.4977
    endloop
  endfacet
  facet normal 0 0.809028 0.58777
    outer loop
      vertex 90 5.83589 12.9006
      vertex 82.5 5.24538 13.7134
      vertex 90 5.24538 13.7134
    endloop
  endfacet
  facet normal 0 0.809028 0.58777
    outer loop
      vertex 82.5 5.24538 13.7134
      vertex 90 5.83589 12.9006
      vertex 82.5 5.83589 12.9006
    endloop
  endfacet
  facet normal -0.0153496 0.42576 0.904706
    outer loop
      vertex 85.6545 30 9.38938
      vertex 90 29.4493 9.72227
      vertex 90 29.9562 9.48372
    endloop
  endfacet
  facet normal -0.0153523 0.425703 0.904733
    outer loop
      vertex 70 29.301 9.45264
      vertex 85.6545 30 9.38938
      vertex 70 30 9.12374
    endloop
  endfacet
  facet normal -0.0153538 0.425734 0.904718
    outer loop
      vertex 85.6545 30 9.38938
      vertex 70 29.301 9.45264
      vertex 90 29.4493 9.72227
    endloop
  endfacet
  facet normal -0.0153513 -0.991988 0.125396
    outer loop
      vertex 70 43.6159 16.4483
      vertex 90 43.2788 16.23
      vertex 90 43.3573 16.851
    endloop
  endfacet
  facet normal -0.0153554 -0.992028 0.125082
    outer loop
      vertex 90 43.2788 16.23
      vertex 70 43.6159 16.4483
      vertex 70 43.5811 16.1723
    endloop
  endfacet
  facet normal -0.015354 -0.929629 0.368178
    outer loop
      vertex 70 42.928 14.1057
      vertex 90 42.5471 13.978
      vertex 90 42.7776 14.56
    endloop
  endfacet
  facet normal -0.0153521 -0.929577 0.368309
    outer loop
      vertex 90 42.5471 13.978
      vertex 70 42.928 14.1057
      vertex 70 42.8255 13.847
    endloop
  endfacet
  facet normal -0.0153496 -0.42576 0.904706
    outer loop
      vertex 90 38.5507 9.72227
      vertex 85.6545 38 9.38938
      vertex 90 38.0438 9.48372
    endloop
  endfacet
  facet normal -0.0153538 -0.425734 0.904718
    outer loop
      vertex 70 38.699 9.45264
      vertex 85.6545 38 9.38938
      vertex 90 38.5507 9.72227
    endloop
  endfacet
  facet normal -0.0153523 -0.425703 0.904733
    outer loop
      vertex 85.6545 38 9.38938
      vertex 70 38.699 9.45264
      vertex 70 38 9.12374
    endloop
  endfacet
  facet normal -0.015352 0.876249 0.481614
    outer loop
      vertex 90 25.4529 13.978
      vertex 70 25.3085 13.6032
      vertex 70 25.1745 13.847
    endloop
  endfacet
  facet normal -0.0153525 0.876231 0.481647
    outer loop
      vertex 70 25.3085 13.6032
      vertex 90 25.4529 13.978
      vertex 90 25.7544 13.4295
    endloop
  endfacet
  facet normal -0.015352 -0.876249 0.481614
    outer loop
      vertex 70 42.6915 13.6032
      vertex 90 42.5471 13.978
      vertex 70 42.8255 13.847
    endloop
  endfacet
  facet normal -0.0153525 -0.876231 0.481647
    outer loop
      vertex 90 42.5471 13.978
      vertex 70 42.6915 13.6032
      vertex 90 42.2456 13.4295
    endloop
  endfacet
  facet normal -0.015354 0.929629 0.368178
    outer loop
      vertex 90 25.4529 13.978
      vertex 70 25.072 14.1057
      vertex 90 25.2224 14.56
    endloop
  endfacet
  facet normal -0.0153521 0.929577 0.368309
    outer loop
      vertex 70 25.072 14.1057
      vertex 90 25.4529 13.978
      vertex 70 25.1745 13.847
    endloop
  endfacet
  facet normal -0.0153527 -0.808957 0.587667
    outer loop
      vertex 70 42.0719 12.5486
      vertex 90 41.2784 11.9788
      vertex 90 41.6077 12.4321
    endloop
  endfacet
  facet normal -0.0153523 -0.808951 0.587675
    outer loop
      vertex 90 41.2784 11.9788
      vertex 70 42.0719 12.5486
      vertex 70 41.5155 11.7827
    endloop
  endfacet
  facet normal -0.0153558 -0.968465 0.248675
    outer loop
      vertex 70 43.5119 15.9028
      vertex 90 43.2788 16.23
      vertex 70 43.5811 16.1723
    endloop
  endfacet
  facet normal -0.0153542 -0.968496 0.248554
    outer loop
      vertex 90 43.2788 16.23
      vertex 70 43.5119 15.9028
      vertex 90 43.1232 15.6237
    endloop
  endfacet
  facet normal -0.0153509 -0.637314 0.770452
    outer loop
      vertex 70 40.677 10.8898
      vertex 90 40.0346 10.7569
      vertex 90 40.4663 11.114
    endloop
  endfacet
  facet normal -0.0153523 -0.637352 0.77042
    outer loop
      vertex 90 40.0346 10.7569
      vertex 70 40.677 10.8898
      vertex 70 39.9475 10.2863
    endloop
  endfacet
  facet normal -0.0153536 -0.53577 0.844224
    outer loop
      vertex 70 38.699 9.45264
      vertex 90 39.0238 10.0225
      vertex 70 39.4983 9.9599
    endloop
  endfacet
  facet normal -0.0153542 -0.535753 0.844235
    outer loop
      vertex 90 39.0238 10.0225
      vertex 70 38.699 9.45264
      vertex 90 38.5507 9.72227
    endloop
  endfacet
  facet normal -0.0153558 0.968465 0.248675
    outer loop
      vertex 90 24.7212 16.23
      vertex 70 24.4881 15.9028
      vertex 70 24.4189 16.1723
    endloop
  endfacet
  facet normal -0.0153542 0.968496 0.248554
    outer loop
      vertex 70 24.4881 15.9028
      vertex 90 24.7212 16.23
      vertex 90 24.8768 15.6237
    endloop
  endfacet
  facet normal -0.0153515 0.728953 0.684392
    outer loop
      vertex 90 27.5337 11.114
      vertex 70 27.1326 11.0926
      vertex 90 27.1052 11.5704
    endloop
  endfacet
  facet normal -0.0153515 0.728958 0.684386
    outer loop
      vertex 70 27.1326 11.0926
      vertex 90 27.5337 11.114
      vertex 70 27.323 10.8898
    endloop
  endfacet
  facet normal -0.0153539 0.425548 0.904806
    outer loop
      vertex 90 29.9562 9.48372
      vertex 90 30 9.46312
      vertex 85.6545 30 9.38938
    endloop
  endfacet
  facet normal -0.0153495 -0.808874 0.587782
    outer loop
      vertex 70 42.0719 12.5486
      vertex 90 41.9757 12.9385
      vertex 70 42.2354 12.7736
    endloop
  endfacet
  facet normal -0.0153498 -0.808862 0.587798
    outer loop
      vertex 90 41.9757 12.9385
      vertex 70 42.0719 12.5486
      vertex 90 41.6077 12.4321
    endloop
  endfacet
  facet normal -0.0153523 -0.876226 0.481656
    outer loop
      vertex 70 42.6915 13.6032
      vertex 90 41.9757 12.9385
      vertex 90 42.2456 13.4295
    endloop
  endfacet
  facet normal -0.0153491 -0.876193 0.481716
    outer loop
      vertex 90 41.9757 12.9385
      vertex 70 42.6915 13.6032
      vertex 70 42.2354 12.7736
    endloop
  endfacet
  facet normal -0.0153532 -0.999882 0
    outer loop
      vertex 70 43.7346 18
      vertex 90 43.4275 17.4069
      vertex 90 43.4275 18
    endloop
  endfacet
  facet normal -0.0153532 -0.999882 0
    outer loop
      vertex 90 43.4275 17.4069
      vertex 70 43.7346 18
      vertex 70 43.7346 17.3876
    endloop
  endfacet
  facet normal -0.0153531 -0.992004 0.125272
    outer loop
      vertex 70 43.7346 17.3876
      vertex 90 43.3573 16.851
      vertex 90 43.4275 17.4069
    endloop
  endfacet
  facet normal -0.0153506 -0.991993 0.125359
    outer loop
      vertex 90 43.3573 16.851
      vertex 70 43.7346 17.3876
      vertex 70 43.6159 16.4483
    endloop
  endfacet
  facet normal -0.0153503 -0.968444 0.248758
    outer loop
      vertex 70 43.5119 15.9028
      vertex 90 42.9838 15.081
      vertex 90 43.1232 15.6237
    endloop
  endfacet
  facet normal -0.0153559 -0.968474 0.248641
    outer loop
      vertex 90 42.9838 15.081
      vertex 70 43.5119 15.9028
      vertex 70 43.2765 14.9859
    endloop
  endfacet
  facet normal -0.015356 -0.929715 0.36796
    outer loop
      vertex 70 43.2765 14.9859
      vertex 90 42.7776 14.56
      vertex 90 42.9838 15.081
    endloop
  endfacet
  facet normal -0.0153521 -0.929665 0.368085
    outer loop
      vertex 90 42.7776 14.56
      vertex 70 43.2765 14.9859
      vertex 70 42.928 14.1057
    endloop
  endfacet
  facet normal -0.015352 -0.728805 0.684549
    outer loop
      vertex 70 41.5155 11.7827
      vertex 90 40.8948 11.5704
      vertex 90 41.2784 11.9788
    endloop
  endfacet
  facet normal -0.0153541 -0.728855 0.684496
    outer loop
      vertex 90 40.8948 11.5704
      vertex 70 41.5155 11.7827
      vertex 70 40.8674 11.0926
    endloop
  endfacet
  facet normal -0.0153515 -0.728953 0.684392
    outer loop
      vertex 70 40.8674 11.0926
      vertex 90 40.4663 11.114
      vertex 90 40.8948 11.5704
    endloop
  endfacet
  facet normal -0.0153515 -0.728958 0.684386
    outer loop
      vertex 90 40.4663 11.114
      vertex 70 40.8674 11.0926
      vertex 70 40.677 10.8898
    endloop
  endfacet
  facet normal -0.0153525 -0.535835 0.844183
    outer loop
      vertex 70 39.4983 9.9599
      vertex 90 39.5523 10.3579
      vertex 70 39.7332 10.109
    endloop
  endfacet
  facet normal -0.0153535 -0.535768 0.844226
    outer loop
      vertex 90 39.5523 10.3579
      vertex 70 39.4983 9.9599
      vertex 90 39.0238 10.0225
    endloop
  endfacet
  facet normal -0.0153539 -0.425548 0.904806
    outer loop
      vertex 90 38 9.46312
      vertex 90 38.0438 9.48372
      vertex 85.6545 38 9.38938
    endloop
  endfacet
  facet normal -0.0153532 0.999882 0
    outer loop
      vertex 90 24.5725 17.4069
      vertex 70 24.2654 18
      vertex 90 24.5725 18
    endloop
  endfacet
  facet normal -0.0153532 0.999882 0
    outer loop
      vertex 70 24.2654 18
      vertex 90 24.5725 17.4069
      vertex 70 24.2654 17.3876
    endloop
  endfacet
  facet normal -0.0153503 0.968444 0.248758
    outer loop
      vertex 90 25.0162 15.081
      vertex 70 24.4881 15.9028
      vertex 90 24.8768 15.6237
    endloop
  endfacet
  facet normal -0.0153559 0.968474 0.248641
    outer loop
      vertex 70 24.4881 15.9028
      vertex 90 25.0162 15.081
      vertex 70 24.7235 14.9859
    endloop
  endfacet
  facet normal -0.015356 0.929715 0.36796
    outer loop
      vertex 90 25.2224 14.56
      vertex 70 24.7235 14.9859
      vertex 90 25.0162 15.081
    endloop
  endfacet
  facet normal -0.0153521 0.929665 0.368085
    outer loop
      vertex 70 24.7235 14.9859
      vertex 90 25.2224 14.56
      vertex 70 25.072 14.1057
    endloop
  endfacet
  facet normal -0.0153523 0.876226 0.481656
    outer loop
      vertex 90 26.0243 12.9385
      vertex 70 25.3085 13.6032
      vertex 90 25.7544 13.4295
    endloop
  endfacet
  facet normal -0.0153491 0.876193 0.481716
    outer loop
      vertex 70 25.3085 13.6032
      vertex 90 26.0243 12.9385
      vertex 70 25.7646 12.7736
    endloop
  endfacet
  facet normal -0.0153495 0.808874 0.587782
    outer loop
      vertex 90 26.0243 12.9385
      vertex 70 25.9281 12.5486
      vertex 70 25.7646 12.7736
    endloop
  endfacet
  facet normal -0.0153498 0.808862 0.587798
    outer loop
      vertex 70 25.9281 12.5486
      vertex 90 26.0243 12.9385
      vertex 90 26.3923 12.4321
    endloop
  endfacet
  facet normal -0.015352 0.728805 0.684549
    outer loop
      vertex 90 27.1052 11.5704
      vertex 70 26.4845 11.7827
      vertex 90 26.7216 11.9788
    endloop
  endfacet
  facet normal -0.0153541 0.728855 0.684496
    outer loop
      vertex 70 26.4845 11.7827
      vertex 90 27.1052 11.5704
      vertex 70 27.1326 11.0926
    endloop
  endfacet
  facet normal -0.0153527 0.808957 0.587667
    outer loop
      vertex 90 26.7216 11.9788
      vertex 70 25.9281 12.5486
      vertex 90 26.3923 12.4321
    endloop
  endfacet
  facet normal -0.0153523 0.808951 0.587675
    outer loop
      vertex 70 25.9281 12.5486
      vertex 90 26.7216 11.9788
      vertex 70 26.4845 11.7827
    endloop
  endfacet
  facet normal -0.0153542 0.535753 0.844235
    outer loop
      vertex 70 29.301 9.45264
      vertex 90 28.9762 10.0225
      vertex 90 29.4493 9.72227
    endloop
  endfacet
  facet normal -0.0153536 0.53577 0.844224
    outer loop
      vertex 90 28.9762 10.0225
      vertex 70 29.301 9.45264
      vertex 70 28.5017 9.9599
    endloop
  endfacet
  facet normal -0.0153532 0.637314 0.770452
    outer loop
      vertex 70 28.0525 10.2863
      vertex 90 27.5337 11.114
      vertex 90 27.9654 10.7569
    endloop
  endfacet
  facet normal -0.0153509 0.637352 0.77042
    outer loop
      vertex 90 27.5337 11.114
      vertex 70 28.0525 10.2863
      vertex 70 27.323 10.8898
    endloop
  endfacet
  facet normal -0.0153535 0.535768 0.844226
    outer loop
      vertex 70 28.5017 9.9599
      vertex 90 28.4477 10.3579
      vertex 90 28.9762 10.0225
    endloop
  endfacet
  facet normal -0.0153525 0.535835 0.844183
    outer loop
      vertex 90 28.4477 10.3579
      vertex 70 28.5017 9.9599
      vertex 70 28.2668 10.109
    endloop
  endfacet
  facet normal -0.0153522 -0.637355 0.770417
    outer loop
      vertex 70 39.9475 10.2863
      vertex 90 39.5523 10.3579
      vertex 90 40.0346 10.7569
    endloop
  endfacet
  facet normal -0.0153527 -0.637382 0.770395
    outer loop
      vertex 90 39.5523 10.3579
      vertex 70 39.9475 10.2863
      vertex 70 39.7332 10.109
    endloop
  endfacet
  facet normal -0.0153527 0.637355 0.770417
    outer loop
      vertex 70 28.2668 10.109
      vertex 90 27.9654 10.7569
      vertex 90 28.4477 10.3579
    endloop
  endfacet
  facet normal -0.0153516 0.637382 0.770395
    outer loop
      vertex 90 27.9654 10.7569
      vertex 70 28.2668 10.109
      vertex 70 28.0525 10.2863
    endloop
  endfacet
  facet normal -0.0153531 0.992004 0.125272
    outer loop
      vertex 90 24.6427 16.851
      vertex 70 24.2654 17.3876
      vertex 90 24.5725 17.4069
    endloop
  endfacet
  facet normal -0.0153506 0.991993 0.125359
    outer loop
      vertex 70 24.2654 17.3876
      vertex 90 24.6427 16.851
      vertex 70 24.3841 16.4483
    endloop
  endfacet
  facet normal -0.0153513 0.991988 0.125396
    outer loop
      vertex 90 24.7212 16.23
      vertex 70 24.3841 16.4483
      vertex 90 24.6427 16.851
    endloop
  endfacet
  facet normal -0.0153554 0.992028 0.125082
    outer loop
      vertex 70 24.3841 16.4483
      vertex 90 24.7212 16.23
      vertex 70 24.4189 16.1723
    endloop
  endfacet
  facet normal 0 1 0
    outer loop
      vertex 90 70 18
      vertex 89 70 14
      vertex 89 70 18
    endloop
  endfacet
  facet normal 0 1 0
    outer loop
      vertex 90 70 0
      vertex 81 70 14
      vertex 89 70 14
    endloop
  endfacet
  facet normal 0 1 0
    outer loop
      vertex 81 70 14
      vertex 90 70 0
      vertex 79 70 14
    endloop
  endfacet
  facet normal 0 1 0
    outer loop
      vertex 70 70 0
      vertex 79 70 14
      vertex 90 70 0
    endloop
  endfacet
  facet normal 0 1 -0
    outer loop
      vertex 90 70 0
      vertex 89 70 14
      vertex 90 70 18
    endloop
  endfacet
  facet normal 0 1 -0
    outer loop
      vertex 81 70 14
      vertex 79 70 18
      vertex 81 70 18
    endloop
  endfacet
  facet normal 0 1 0
    outer loop
      vertex 79 70 18
      vertex 81 70 14
      vertex 79 70 14
    endloop
  endfacet
  facet normal 0 1 -0
    outer loop
      vertex 71 70 14
      vertex 70 70 18
      vertex 71 70 18
    endloop
  endfacet
  facet normal 0 1 0
    outer loop
      vertex 71 70 14
      vertex 70 70 0
      vertex 70 70 18
    endloop
  endfacet
  facet normal 0 1 0
    outer loop
      vertex 79 70 14
      vertex 70 70 0
      vertex 71 70 14
    endloop
  endfacet
  facet normal 0 1 -0
    outer loop
      vertex 79 70 14
      vertex 71 70 18
      vertex 79 70 18
    endloop
  endfacet
  facet normal 0 1 0
    outer loop
      vertex 71 70 18
      vertex 79 70 14
      vertex 71 70 14
    endloop
  endfacet
  facet normal 0 1 -0
    outer loop
      vertex 89 70 14
      vertex 81 70 18
      vertex 89 70 18
    endloop
  endfacet
  facet normal 0 1 0
    outer loop
      vertex 81 70 18
      vertex 89 70 14
      vertex 81 70 14
    endloop
  endfacet
  facet normal 0 -1 0
    outer loop
      vertex 70 16 9.95523
      vertex 70 16 3
      vertex 82.5 16 9.95523
    endloop
  endfacet
  facet normal 0 -1 0
    outer loop
      vertex 82.5 16 9.95523
      vertex 90 16 11.0822
      vertex 82.5 16 11.0822
    endloop
  endfacet
  facet normal 0 -1 0
    outer loop
      vertex 90 16 3
      vertex 82.5 16 9.95523
      vertex 70 16 3
    endloop
  endfacet
  facet normal 0 -1 0
    outer loop
      vertex 82.5 16 9.95523
      vertex 90 16 3
      vertex 90 16 11.0822
    endloop
  endfacet
  facet normal -0 0 1
    outer loop
      vertex 70 16 3
      vertex 90 8 3
      vertex 90 16 3
    endloop
  endfacet
  facet normal 0 0 1
    outer loop
      vertex 90 8 3
      vertex 70 16 3
      vertex 70 8 3
    endloop
  endfacet
  facet normal 0 1 0
    outer loop
      vertex 90 8 11.0822
      vertex 82.5 8 9.95523
      vertex 82.5 8 11.0822
    endloop
  endfacet
  facet normal 0 1 -0
    outer loop
      vertex 90 8 3
      vertex 82.5 8 9.95523
      vertex 90 8 11.0822
    endloop
  endfacet
  facet normal 0 1 0
    outer loop
      vertex 70 8 3
      vertex 82.5 8 9.95523
      vertex 90 8 3
    endloop
  endfacet
  facet normal 0 1 0
    outer loop
      vertex 82.5 8 9.95523
      vertex 70 8 3
      vertex 70 8 9.95523
    endloop
  endfacet
  facet normal -0 0 1
    outer loop
      vertex 70 38 3
      vertex 90 30 3
      vertex 90 38 3
    endloop
  endfacet
  facet normal 0 0 1
    outer loop
      vertex 90 30 3
      vertex 70 38 3
      vertex 70 30 3
    endloop
  endfacet
  facet normal 0 1 -0
    outer loop
      vertex 90 30 3
      vertex 85.6545 30 9.38938
      vertex 90 30 9.46312
    endloop
  endfacet
  facet normal 0 1 0
    outer loop
      vertex 70 30 3
      vertex 85.6545 30 9.38938
      vertex 90 30 3
    endloop
  endfacet
  facet normal 0 1 0
    outer loop
      vertex 85.6545 30 9.38938
      vertex 70 30 3
      vertex 70 30 9.12374
    endloop
  endfacet
  facet normal 0 -1 0
    outer loop
      vertex 70 38 3
      vertex 85.6545 38 9.38938
      vertex 70 38 9.12374
    endloop
  endfacet
  facet normal 0 -1 0
    outer loop
      vertex 90 38 3
      vertex 85.6545 38 9.38938
      vertex 70 38 3
    endloop
  endfacet
  facet normal 0 -1 0
    outer loop
      vertex 85.6545 38 9.38938
      vertex 90 38 3
      vertex 90 38 9.46312
    endloop
  endfacet
  facet normal 0 -1 0
    outer loop
      vertex 70 68 3
      vertex 90 68 18
      vertex 70 68 18
    endloop
  endfacet
  facet normal 0 -1 -0
    outer loop
      vertex 90 68 18
      vertex 70 68 3
      vertex 90 68 3
    endloop
  endfacet
  facet normal -0 0 1
    outer loop
      vertex 70 68 3
      vertex 90 48 3
      vertex 90 68 3
    endloop
  endfacet
  facet normal 0 0 1
    outer loop
      vertex 90 48 3
      vertex 70 68 3
      vertex 70 48 3
    endloop
  endfacet
  facet normal 0 1 -0
    outer loop
      vertex 90 48 3
      vertex 70 48 18
      vertex 90 48 18
    endloop
  endfacet
  facet normal 0 1 0
    outer loop
      vertex 70 48 18
      vertex 90 48 3
      vertex 70 48 3
    endloop
  endfacet
  facet normal -1 0 0
    outer loop
      vertex 70 70 0
      vertex 70 68 3
      vertex 70 70 18
    endloop
  endfacet
  facet normal -1 0 0
    outer loop
      vertex 70 70 0
      vertex 70 48 3
      vertex 70 68 3
    endloop
  endfacet
  facet normal -1 0 0
    outer loop
      vertex 70 42.8255 13.847
      vertex 70 48 18
      vertex 70 48 3
    endloop
  endfacet
  facet normal -1 0 0
    outer loop
      vertex 70 48 18
      vertex 70 43.6159 16.4483
      vertex 70 43.7346 17.3876
    endloop
  endfacet
  facet normal -1 0 0
    outer loop
      vertex 70 48 18
      vertex 70 43.5811 16.1723
      vertex 70 43.6159 16.4483
    endloop
  endfacet
  facet normal -1 0 0
    outer loop
      vertex 70 48 18
      vertex 70 43.5119 15.9028
      vertex 70 43.5811 16.1723
    endloop
  endfacet
  facet normal -1 0 0
    outer loop
      vertex 70 48 18
      vertex 70 43.2765 14.9859
      vertex 70 43.5119 15.9028
    endloop
  endfacet
  facet normal -1 0 0
    outer loop
      vertex 70 48 18
      vertex 70 42.928 14.1057
      vertex 70 43.2765 14.9859
    endloop
  endfacet
  facet normal -1 0 0
    outer loop
      vertex 70 48 18
      vertex 70 42.8255 13.847
      vertex 70 42.928 14.1057
    endloop
  endfacet
  facet normal -1 0 0
    outer loop
      vertex 70 48 3
      vertex 70 42.6915 13.6032
      vertex 70 42.8255 13.847
    endloop
  endfacet
  facet normal -1 0 0
    outer loop
      vertex 70 48 3
      vertex 70 42.2354 12.7736
      vertex 70 42.6915 13.6032
    endloop
  endfacet
  facet normal -1 0 0
    outer loop
      vertex 70 48 3
      vertex 70 42.0719 12.5486
      vertex 70 42.2354 12.7736
    endloop
  endfacet
  facet normal -1 0 0
    outer loop
      vertex 70 48 3
      vertex 70 41.5155 11.7827
      vertex 70 42.0719 12.5486
    endloop
  endfacet
  facet normal -1 0 0
    outer loop
      vertex 70 48 3
      vertex 70 40.8674 11.0926
      vertex 70 41.5155 11.7827
    endloop
  endfacet
  facet normal -1 0 0
    outer loop
      vertex 70 48 3
      vertex 70 40.677 10.8898
      vertex 70 40.8674 11.0926
    endloop
  endfacet
  facet normal -1 0 0
    outer loop
      vertex 70 48 3
      vertex 70 39.9475 10.2863
      vertex 70 40.677 10.8898
    endloop
  endfacet
  facet normal -1 0 0
    outer loop
      vertex 70 48 3
      vertex 70 39.7332 10.109
      vertex 70 39.9475 10.2863
    endloop
  endfacet
  facet normal -1 0 0
    outer loop
      vertex 70 38 3
      vertex 70 39.7332 10.109
      vertex 70 48 3
    endloop
  endfacet
  facet normal -1 0 0
    outer loop
      vertex 70 39.7332 10.109
      vertex 70 38 3
      vertex 70 39.4983 9.9599
    endloop
  endfacet
  facet normal -1 0 0
    outer loop
      vertex 70 39.4983 9.9599
      vertex 70 38 3
      vertex 70 38.699 9.45264
    endloop
  endfacet
  facet normal -1 0 0
    outer loop
      vertex 70 70 0
      vertex 70 38 3
      vertex 70 48 3
    endloop
  endfacet
  facet normal -1 0 0
    outer loop
      vertex 70 70 0
      vertex 70 30 3
      vertex 70 38 3
    endloop
  endfacet
  facet normal -1 0 0
    outer loop
      vertex 70 30 3
      vertex 70 29.301 9.45264
      vertex 70 30 9.12374
    endloop
  endfacet
  facet normal -1 0 0
    outer loop
      vertex 70 30 3
      vertex 70 28.5017 9.9599
      vertex 70 29.301 9.45264
    endloop
  endfacet
  facet normal -1 0 0
    outer loop
      vertex 70 30 3
      vertex 70 28.2668 10.109
      vertex 70 28.5017 9.9599
    endloop
  endfacet
  facet normal -1 0 0
    outer loop
      vertex 70 30 3
      vertex 70 28.0525 10.2863
      vertex 70 28.2668 10.109
    endloop
  endfacet
  facet normal -1 0 0
    outer loop
      vertex 70 30 3
      vertex 70 27.323 10.8898
      vertex 70 28.0525 10.2863
    endloop
  endfacet
  facet normal -1 0 0
    outer loop
      vertex 70 16 3
      vertex 70 27.323 10.8898
      vertex 70 30 3
    endloop
  endfacet
  facet normal -1 0 -0
    outer loop
      vertex 70 18.1609 11.4393
      vertex 70 27.323 10.8898
      vertex 70 16 3
    endloop
  endfacet
  facet normal -1 0 0
    outer loop
      vertex 70 27.323 10.8898
      vertex 70 18.1609 11.4393
      vertex 70 27.1326 11.0926
    endloop
  endfacet
  facet normal -1 0 0
    outer loop
      vertex 70 27.1326 11.0926
      vertex 70 18.1609 11.4393
      vertex 70 26.4845 11.7827
    endloop
  endfacet
  facet normal -1 0 0
    outer loop
      vertex 70 26.4845 11.7827
      vertex 70 18.9346 12.2632
      vertex 70 25.9281 12.5486
    endloop
  endfacet
  facet normal -1 -0 0
    outer loop
      vertex 70 25.9281 12.5486
      vertex 70 18.9346 12.2632
      vertex 70 25.7646 12.7736
    endloop
  endfacet
  facet normal -1 0 0
    outer loop
      vertex 70 20.1434 14.168
      vertex 70 25.072 14.1057
      vertex 70 25.1745 13.847
    endloop
  endfacet
  facet normal -1 0 0
    outer loop
      vertex 70 24.2654 17.3876
      vertex 70 20.9822 17.4349
      vertex 70 24.2654 18
    endloop
  endfacet
  facet normal -1 0 0
    outer loop
      vertex 70 24.3841 16.4483
      vertex 70 20.9822 17.4349
      vertex 70 24.2654 17.3876
    endloop
  endfacet
  facet normal -1 0 0
    outer loop
      vertex 70 20.8406 16.3136
      vertex 70 24.3841 16.4483
      vertex 70 24.4189 16.1723
    endloop
  endfacet
  facet normal -1 0 0
    outer loop
      vertex 70 20.8406 16.3136
      vertex 70 24.4189 16.1723
      vertex 70 24.4881 15.9028
    endloop
  endfacet
  facet normal -1 0 0
    outer loop
      vertex 70 20.5595 15.2188
      vertex 70 24.4881 15.9028
      vertex 70 24.7235 14.9859
    endloop
  endfacet
  facet normal -1 0 0
    outer loop
      vertex 70 25.072 14.1057
      vertex 70 20.1434 14.168
      vertex 70 24.7235 14.9859
    endloop
  endfacet
  facet normal -1 0 -0
    outer loop
      vertex 70 19.5989 13.1776
      vertex 70 25.7646 12.7736
      vertex 70 18.9346 12.2632
    endloop
  endfacet
  facet normal -1 -0 0
    outer loop
      vertex 70 24.3841 16.4483
      vertex 70 20.8406 16.3136
      vertex 70 20.9822 17.4349
    endloop
  endfacet
  facet normal -1 -0 0
    outer loop
      vertex 70 24.4881 15.9028
      vertex 70 20.5595 15.2188
      vertex 70 20.8406 16.3136
    endloop
  endfacet
  facet normal -1 -0 0
    outer loop
      vertex 70 24.7235 14.9859
      vertex 70 20.1434 14.168
      vertex 70 20.5595 15.2188
    endloop
  endfacet
  facet normal -1 0 0
    outer loop
      vertex 70 25.3085 13.6032
      vertex 70 20.1434 14.168
      vertex 70 25.1745 13.847
    endloop
  endfacet
  facet normal -1 0 -0
    outer loop
      vertex 70 20.1434 14.168
      vertex 70 25.3085 13.6032
      vertex 70 19.5989 13.1776
    endloop
  endfacet
  facet normal -1 0 0
    outer loop
      vertex 70 25.7646 12.7736
      vertex 70 19.5989 13.1776
      vertex 70 25.3085 13.6032
    endloop
  endfacet
  facet normal -1 0 -0
    outer loop
      vertex 70 18.9346 12.2632
      vertex 70 26.4845 11.7827
      vertex 70 18.1609 11.4393
    endloop
  endfacet
  facet normal -1 0 0
    outer loop
      vertex 70 18.1609 11.4393
      vertex 70 16 3
      vertex 70 17.2901 10.7188
    endloop
  endfacet
  facet normal -1 0 0
    outer loop
      vertex 70 17.2901 10.7188
      vertex 70 16 3
      vertex 70 16.3358 10.1132
    endloop
  endfacet
  facet normal -1 0 0
    outer loop
      vertex 70 0.00394726 0
      vertex 70 30 3
      vertex 70 70 0
    endloop
  endfacet
  facet normal -1 -0 0
    outer loop
      vertex 70 30 3
      vertex 70 0.00394726 0
      vertex 70 16 3
    endloop
  endfacet
  facet normal -1 0 0
    outer loop
      vertex 70 8 3
      vertex 70 7.66422 10.1132
      vertex 70 8 9.95523
    endloop
  endfacet
  facet normal -1 0 0
    outer loop
      vertex 70 8 3
      vertex 70 6.70993 10.7188
      vertex 70 7.66422 10.1132
    endloop
  endfacet
  facet normal -1 0 0
    outer loop
      vertex 70 0.00394726 0
      vertex 70 6.70993 10.7188
      vertex 70 8 3
    endloop
  endfacet
  facet normal -1 -0 0
    outer loop
      vertex 70 6.70993 10.7188
      vertex 70 0.00394726 0
      vertex 70 5.83908 11.4393
    endloop
  endfacet
  facet normal -1 -0 0
    outer loop
      vertex 70 5.83908 11.4393
      vertex 70 0.00394726 0
      vertex 70 5.06538 12.2632
    endloop
  endfacet
  facet normal -1 -0 0
    outer loop
      vertex 70 5.06538 12.2632
      vertex 70 0.00394726 0
      vertex 70 4.40105 13.1776
    endloop
  endfacet
  facet normal -1 -0 0
    outer loop
      vertex 70 4.40105 13.1776
      vertex 70 0.00394726 0
      vertex 70 3.85656 14.168
    endloop
  endfacet
  facet normal -1 -0 0
    outer loop
      vertex 70 16 3
      vertex 70 0.00394726 0
      vertex 70 8 3
    endloop
  endfacet
  facet normal -1 0 0
    outer loop
      vertex 70 0.00394726 18
      vertex 70 3.85656 14.168
      vertex 70 0.00394726 0
    endloop
  endfacet
  facet normal -1 0 0
    outer loop
      vertex 70 3.85656 14.168
      vertex 70 0.00394726 18
      vertex 70 3.44049 15.2188
    endloop
  endfacet
  facet normal -1 0 0
    outer loop
      vertex 70 3.44049 15.2188
      vertex 70 0.00394726 18
      vertex 70 3.15942 16.3136
    endloop
  endfacet
  facet normal -1 0 0
    outer loop
      vertex 70 3.15942 16.3136
      vertex 70 0.00394726 18
      vertex 70 3.01776 17.4349
    endloop
  endfacet
  facet normal -1 0 0
    outer loop
      vertex 70 3.01776 17.4349
      vertex 70 0.00394726 18
      vertex 70 3.01776 18
    endloop
  endfacet
  facet normal -1 -0 0
    outer loop
      vertex 70 70 18
      vertex 70 68 3
      vertex 70 68 18
    endloop
  endfacet
  facet normal -1 -0 0
    outer loop
      vertex 70 48 18
      vertex 70 43.7346 17.3876
      vertex 70 43.7346 18
    endloop
  endfacet
  facet normal -1 0 0
    outer loop
      vertex 70 38.699 9.45264
      vertex 70 38 3
      vertex 70 38 9.12374
    endloop
  endfacet
  facet normal -1 -0 0
    outer loop
      vertex 70 24.2654 18
      vertex 70 20.9822 17.4349
      vertex 70 20.9822 18
    endloop
  endfacet
  facet normal -1 0 0
    outer loop
      vertex 70 16.3358 10.1132
      vertex 70 16 3
      vertex 70 16 9.95523
    endloop
  endfacet
  facet normal 1 0 0
    outer loop
      vertex 90 4.01579 18
      vertex 90 0.00394726 18
      vertex 90 4.01579 17.4977
    endloop
  endfacet
  facet normal 1 0 0
    outer loop
      vertex 90 8 11.0822
      vertex 90 7.29772 11.5279
      vertex 90 8 3
    endloop
  endfacet
  facet normal 1 0 0
    outer loop
      vertex 90 19.9842 17.4977
      vertex 90 24.5725 18
      vertex 90 19.9842 18
    endloop
  endfacet
  facet normal 1 0 0
    outer loop
      vertex 90 30 9.46312
      vertex 90 29.9562 9.48372
      vertex 90 30 3
    endloop
  endfacet
  facet normal 1 0 0
    outer loop
      vertex 90 43.4275 17.4069
      vertex 90 48 18
      vertex 90 43.4275 18
    endloop
  endfacet
  facet normal 1 0 0
    outer loop
      vertex 90 68 3
      vertex 90 70 18
      vertex 90 68 18
    endloop
  endfacet
  facet normal 1 0 0
    outer loop
      vertex 90 70 18
      vertex 90 68 3
      vertex 90 70 0
    endloop
  endfacet
  facet normal 1 -0 0
    outer loop
      vertex 90 48 3
      vertex 90 70 0
      vertex 90 68 3
    endloop
  endfacet
  facet normal 1 0 0
    outer loop
      vertex 90 43.3573 16.851
      vertex 90 48 18
      vertex 90 43.4275 17.4069
    endloop
  endfacet
  facet normal 1 0 0
    outer loop
      vertex 90 43.2788 16.23
      vertex 90 48 18
      vertex 90 43.3573 16.851
    endloop
  endfacet
  facet normal 1 0 0
    outer loop
      vertex 90 43.1232 15.6237
      vertex 90 48 18
      vertex 90 43.2788 16.23
    endloop
  endfacet
  facet normal 1 0 0
    outer loop
      vertex 90 42.9838 15.081
      vertex 90 48 18
      vertex 90 43.1232 15.6237
    endloop
  endfacet
  facet normal 1 0 0
    outer loop
      vertex 90 42.7776 14.56
      vertex 90 48 18
      vertex 90 42.9838 15.081
    endloop
  endfacet
  facet normal 1 0 0
    outer loop
      vertex 90 42.5471 13.978
      vertex 90 48 18
      vertex 90 42.7776 14.56
    endloop
  endfacet
  facet normal 1 0 0
    outer loop
      vertex 90 48 18
      vertex 90 42.5471 13.978
      vertex 90 48 3
    endloop
  endfacet
  facet normal 1 -0 0
    outer loop
      vertex 90 42.2456 13.4295
      vertex 90 48 3
      vertex 90 42.5471 13.978
    endloop
  endfacet
  facet normal 1 -0 0
    outer loop
      vertex 90 41.9757 12.9385
      vertex 90 48 3
      vertex 90 42.2456 13.4295
    endloop
  endfacet
  facet normal 1 -0 0
    outer loop
      vertex 90 41.6077 12.4321
      vertex 90 48 3
      vertex 90 41.9757 12.9385
    endloop
  endfacet
  facet normal 1 -0 0
    outer loop
      vertex 90 41.2784 11.9788
      vertex 90 48 3
      vertex 90 41.6077 12.4321
    endloop
  endfacet
  facet normal 1 -0 0
    outer loop
      vertex 90 40.8948 11.5704
      vertex 90 48 3
      vertex 90 41.2784 11.9788
    endloop
  endfacet
  facet normal 1 -0 0
    outer loop
      vertex 90 40.4663 11.114
      vertex 90 48 3
      vertex 90 40.8948 11.5704
    endloop
  endfacet
  facet normal 1 -0 0
    outer loop
      vertex 90 40.0346 10.7569
      vertex 90 48 3
      vertex 90 40.4663 11.114
    endloop
  endfacet
  facet normal 1 -0 0
    outer loop
      vertex 90 39.5523 10.3579
      vertex 90 48 3
      vertex 90 40.0346 10.7569
    endloop
  endfacet
  facet normal 1 0 0
    outer loop
      vertex 90 38 3
      vertex 90 39.5523 10.3579
      vertex 90 39.0238 10.0225
    endloop
  endfacet
  facet normal 1 0 0
    outer loop
      vertex 90 38 3
      vertex 90 39.0238 10.0225
      vertex 90 38.5507 9.72227
    endloop
  endfacet
  facet normal 1 0 0
    outer loop
      vertex 90 38 3
      vertex 90 38.5507 9.72227
      vertex 90 38.0438 9.48372
    endloop
  endfacet
  facet normal 1 0 0
    outer loop
      vertex 90 38 3
      vertex 90 38.0438 9.48372
      vertex 90 38 9.46312
    endloop
  endfacet
  facet normal 1 0 0
    outer loop
      vertex 90 39.5523 10.3579
      vertex 90 38 3
      vertex 90 48 3
    endloop
  endfacet
  facet normal 1 -0 0
    outer loop
      vertex 90 38 3
      vertex 90 70 0
      vertex 90 48 3
    endloop
  endfacet
  facet normal 1 -0 0
    outer loop
      vertex 90 30 3
      vertex 90 70 0
      vertex 90 38 3
    endloop
  endfacet
  facet normal 1 0 0
    outer loop
      vertex 90 29.4493 9.72227
      vertex 90 30 3
      vertex 90 29.9562 9.48372
    endloop
  endfacet
  facet normal 1 0 0
    outer loop
      vertex 90 28.9762 10.0225
      vertex 90 30 3
      vertex 90 29.4493 9.72227
    endloop
  endfacet
  facet normal 1 0 0
    outer loop
      vertex 90 28.4477 10.3579
      vertex 90 30 3
      vertex 90 28.9762 10.0225
    endloop
  endfacet
  facet normal 1 0 0
    outer loop
      vertex 90 27.9654 10.7569
      vertex 90 30 3
      vertex 90 28.4477 10.3579
    endloop
  endfacet
  facet normal 1 0 0
    outer loop
      vertex 90 27.5337 11.114
      vertex 90 30 3
      vertex 90 27.9654 10.7569
    endloop
  endfacet
  facet normal 1 0 0
    outer loop
      vertex 90 16 3
      vertex 90 27.5337 11.114
      vertex 90 27.1052 11.5704
    endloop
  endfacet
  facet normal 1 0 0
    outer loop
      vertex 90 17.4764 12.1683
      vertex 90 27.1052 11.5704
      vertex 90 26.7216 11.9788
    endloop
  endfacet
  facet normal 1 0 0
    outer loop
      vertex 90 18.1641 12.9006
      vertex 90 26.7216 11.9788
      vertex 90 26.3923 12.4321
    endloop
  endfacet
  facet normal 1 -0 0
    outer loop
      vertex 90 18.1641 12.9006
      vertex 90 26.3923 12.4321
      vertex 90 26.0243 12.9385
    endloop
  endfacet
  facet normal 1 0 0
    outer loop
      vertex 90 18.7546 13.7134
      vertex 90 26.0243 12.9385
      vertex 90 25.7544 13.4295
    endloop
  endfacet
  facet normal 1 -0 0
    outer loop
      vertex 90 18.7546 13.7134
      vertex 90 25.7544 13.4295
      vertex 90 25.4529 13.978
    endloop
  endfacet
  facet normal 1 -0 0
    outer loop
      vertex 90 19.2386 14.5938
      vertex 90 25.2224 14.56
      vertex 90 25.0162 15.081
    endloop
  endfacet
  facet normal 1 0 0
    outer loop
      vertex 90 19.9842 17.4977
      vertex 90 24.6427 16.851
      vertex 90 24.5725 17.4069
    endloop
  endfacet
  facet normal 1 0 0
    outer loop
      vertex 90 24.5725 18
      vertex 90 19.9842 17.4977
      vertex 90 24.5725 17.4069
    endloop
  endfacet
  facet normal 1 0 0
    outer loop
      vertex 90 24.6427 16.851
      vertex 90 19.9842 17.4977
      vertex 90 19.8583 16.5009
    endloop
  endfacet
  facet normal 1 0 0
    outer loop
      vertex 90 24.6427 16.851
      vertex 90 19.8583 16.5009
      vertex 90 24.7212 16.23
    endloop
  endfacet
  facet normal 1 0 0
    outer loop
      vertex 90 19.6085 15.5279
      vertex 90 24.7212 16.23
      vertex 90 19.8583 16.5009
    endloop
  endfacet
  facet normal 1 0 0
    outer loop
      vertex 90 24.7212 16.23
      vertex 90 19.6085 15.5279
      vertex 90 24.8768 15.6237
    endloop
  endfacet
  facet normal 1 0 0
    outer loop
      vertex 90 24.8768 15.6237
      vertex 90 19.6085 15.5279
      vertex 90 25.0162 15.081
    endloop
  endfacet
  facet normal 1 0 0
    outer loop
      vertex 90 19.2386 14.5938
      vertex 90 25.0162 15.081
      vertex 90 19.6085 15.5279
    endloop
  endfacet
  facet normal 1 0 0
    outer loop
      vertex 90 25.2224 14.56
      vertex 90 19.2386 14.5938
      vertex 90 25.4529 13.978
    endloop
  endfacet
  facet normal 1 0 0
    outer loop
      vertex 90 18.7546 13.7134
      vertex 90 25.4529 13.978
      vertex 90 19.2386 14.5938
    endloop
  endfacet
  facet normal 1 0 0
    outer loop
      vertex 90 26.0243 12.9385
      vertex 90 18.7546 13.7134
      vertex 90 18.1641 12.9006
    endloop
  endfacet
  facet normal 1 0 0
    outer loop
      vertex 90 26.7216 11.9788
      vertex 90 18.1641 12.9006
      vertex 90 17.4764 12.1683
    endloop
  endfacet
  facet normal 1 0 0
    outer loop
      vertex 90 27.1052 11.5704
      vertex 90 17.4764 12.1683
      vertex 90 16 3
    endloop
  endfacet
  facet normal 1 0 0
    outer loop
      vertex 90 16 3
      vertex 90 17.4764 12.1683
      vertex 90 16.7023 11.5279
    endloop
  endfacet
  facet normal 1 0 0
    outer loop
      vertex 90 16 3
      vertex 90 16.7023 11.5279
      vertex 90 16 11.0822
    endloop
  endfacet
  facet normal 1 0 0
    outer loop
      vertex 90 27.5337 11.114
      vertex 90 16 3
      vertex 90 30 3
    endloop
  endfacet
  facet normal 1 0 0
    outer loop
      vertex 90 0.00394726 0
      vertex 90 30 3
      vertex 90 16 3
    endloop
  endfacet
  facet normal 1 0 0
    outer loop
      vertex 90 0.00394726 0
      vertex 90 16 3
      vertex 90 8 3
    endloop
  endfacet
  facet normal 1 0 0
    outer loop
      vertex 90 6.52362 12.1683
      vertex 90 8 3
      vertex 90 7.29772 11.5279
    endloop
  endfacet
  facet normal 1 0 0
    outer loop
      vertex 90 0.00394726 0
      vertex 90 6.52362 12.1683
      vertex 90 5.83589 12.9006
    endloop
  endfacet
  facet normal 1 0 0
    outer loop
      vertex 90 0.00394726 0
      vertex 90 5.83589 12.9006
      vertex 90 5.24538 13.7134
    endloop
  endfacet
  facet normal 1 0 0
    outer loop
      vertex 90 0.00394726 18
      vertex 90 5.24538 13.7134
      vertex 90 4.76138 14.5938
    endloop
  endfacet
  facet normal 1 0 0
    outer loop
      vertex 90 0.00394726 18
      vertex 90 4.76138 14.5938
      vertex 90 4.39155 15.5279
    endloop
  endfacet
  facet normal 1 0 0
    outer loop
      vertex 90 0.00394726 18
      vertex 90 4.1417 16.5009
      vertex 90 4.01579 17.4977
    endloop
  endfacet
  facet normal 1 0 0
    outer loop
      vertex 90 0.00394726 18
      vertex 90 4.39155 15.5279
      vertex 90 4.1417 16.5009
    endloop
  endfacet
  facet normal 1 0 0
    outer loop
      vertex 90 5.24538 13.7134
      vertex 90 0.00394726 18
      vertex 90 0.00394726 0
    endloop
  endfacet
  facet normal 1 0 0
    outer loop
      vertex 90 30 3
      vertex 90 0.00394726 0
      vertex 90 70 0
    endloop
  endfacet
  facet normal 1 0 0
    outer loop
      vertex 90 6.52362 12.1683
      vertex 90 0.00394726 0
      vertex 90 8 3
    endloop
  endfacet
endsolid OpenSCAD_Model
